# xmcd CD database file
#
# Track frame offsets:
#	150
#	13944
#	34497
#	52484
#	72178
#	88571
#	110579
#	129355
#	150166
#
# Disc length: 2354 seconds
#
# Revision: 4
# Processed by: cddbd v1.5.2PL0 Copyright (c) Steve Scherf et al.
# Submitted via: CDex 1.70beta2
#
DISCID=77093009
DTITLE=Climax Blues Band - Lucky For Some(with Glenn Hughes)(LP2CD)
DYEAR=1981
DGENRE=Rock
TTITLE0=Victim
TTITLE1=Cuttin´ Up Rough
TTITLE2=Shake It Lucy (with Glenn Hughes)
TTITLE3=Oceans Apart
TTITLE4=Breakdown
TTITLE5=Darlin`
TTITLE6=This Time You´re The Singer
TTITLE7=Last Change Saloon
TTITLE8=They´d Never Believe Us
EXTD=YEAR: 1981
EXTT0=
EXTT1=
EXTT2=
EXTT3=
EXTT4=
EXTT5=
EXTT6=
EXTT7=
EXTT8=
PLAYORDER=
